<svg width="1200" height="1300" viewBox="0 0 1200 1300" fill="none" xmlns="http://www.w3.org/2000/svg">
  <rect width="1200" height="1300" rx="72" fill="#F4E8DB"/>
  <rect x="78" y="76" width="1044" height="1148" rx="56" fill="#FBF8F4"/>
  <circle cx="920" cy="248" r="128" fill="#E8C7A8"/>
  <circle cx="254" cy="1030" r="136" fill="#D7B484"/>
  <rect x="124" y="160" width="420" height="420" rx="44" fill="#C37A47"/>
  <path d="M208 404C240 286 365 229 463 276C530 308 560 372 560 425C560 497 511 561 438 561C387 561 345 531 328 490C314 459 318 419 341 391C364 365 404 357 432 377C451 390 461 410 461 429C461 460 438 484 407 484C381 484 360 463 360 437" stroke="#FFF7EF" stroke-width="20" stroke-linecap="round" stroke-linejoin="round"/>
  <circle cx="456" cy="330" r="16" fill="#4C3525"/>
  <rect x="616" y="208" width="410" height="240" rx="36" fill="#ECE2D5"/>
  <rect x="656" y="258" width="210" height="140" rx="28" fill="#7A845B"/>
  <rect x="886" y="258" width="100" height="140" rx="28" fill="#E8C7A8"/>
  <rect x="616" y="488" width="410" height="272" rx="36" fill="#EFE7DC"/>
  <circle cx="742" cy="626" r="70" fill="#B76E3C"/>
  <circle cx="824" cy="580" r="48" fill="#D9B28A"/>
  <circle cx="894" cy="650" r="58" fill="#7B8660"/>
  <rect x="170" y="664" width="370" height="420" rx="42" fill="#F2E7DA"/>
  <rect x="208" y="714" width="294" height="58" rx="20" fill="#D8B592"/>
  <rect x="208" y="800" width="294" height="174" rx="24" fill="#E9D2B4"/>
  <path d="M288 908C334 839 393 815 446 831C460 835 471 840 486 849" stroke="#B76E3C" stroke-width="18" stroke-linecap="round"/>
  <rect x="616" y="802" width="410" height="242" rx="36" fill="#ECE2D5"/>
  <rect x="652" y="840" width="338" height="24" rx="12" fill="#B76E3C"/>
  <rect x="652" y="888" width="260" height="24" rx="12" fill="#D5B08A"/>
  <rect x="652" y="936" width="308" height="24" rx="12" fill="#7B8660"/>
  <rect x="652" y="984" width="230" height="24" rx="12" fill="#B76E3C"/>
</svg>
